<svg width="220" height="220" viewBox="0 0 220 220" fill="none" xmlns="http://www.w3.org/2000/svg">
    <path
        d="M106.038 192.867C152.517 192.867 190.196 155.602 190.196 109.633C190.196 63.665 152.517 26.4001 106.038 26.4001C59.5581 26.4001 21.8789 63.665 21.8789 109.633C21.8789 155.602 59.5581 192.867 106.038 192.867Z"
        fill="#F2F2F2" />
    <ellipse cx="10.5864" cy="93.4139" rx="3.98582" ry="3.942" fill="#169ED9" />
    <rect x="67.1973" y="69.584" width="144.875" height="51.6512" rx="17.6" fill="#374761" />
    <rect x="126.999" y="87.3655" width="48.8531" height="6.77393" rx="3.38697" fill="#CCC6D9" />
    <rect x="79.8311" y="97.5264" width="96.2678" height="6.77393" rx="3.38697" fill="white" />
    <ellipse cx="193.541" cy="95.8329" rx="8.42295" ry="8.46742" fill="#E1DCEB" />
    <rect x="6.60059" y="112.768" width="144.875" height="51.6512" rx="17.6" fill="#E1DCEB" />
    <rect x="42.8184" y="130.549" width="48.8531" height="6.77393" rx="3.38697" fill="#169ED9" />
    <rect x="42.8184" y="140.71" width="96.2678" height="6.77394" rx="3.38697" fill="white" />
    <ellipse cx="27.6573" cy="139.016" rx="8.42295" ry="8.46742" fill="#169ED9" />
    <ellipse cx="181.586" cy="182.414" rx="3.98582" ry="3.942" fill="#374761" />
</svg>
