<svg enable-background="new 0 0 512 512" height="512" viewBox="0 0 64 64" width="512"
    xmlns="http://www.w3.org/2000/svg">
    <path
        d="m56.562 17.372c-.316-5.255-4.704-9.372-9.989-9.372h-2.573v-2a2 2 0 0 0 -4 0v2h-16v-2a2 2 0 0 0 -4 0v2h-2.573c-5.286 0-9.674 4.117-9.989 9.372-.593 9.884-.582 19.91.033 29.799.312 5.022 4.335 9.045 9.357 9.357 5.033.313 10.102.469 15.171.469 5.068 0 10.138-.156 15.171-.469 5.022-.312 9.045-4.335 9.357-9.357.616-9.884.627-19.909.035-29.799zm-4.026 29.551a6.006 6.006 0 0 1 -5.613 5.613c-9.902.615-19.944.615-29.846 0a6.006 6.006 0 0 1 -5.613-5.613 241.309 241.309 0 0 1 -.317-22.923h41.707c.252 7.64.155 15.323-.318 22.923zm-30.536-30.923a2 2 0 0 0 2-2v-2h16v2a2 2 0 0 0 4 0v-2h2.573c3.173 0 5.807 2.465 5.996 5.611.047.794.067 1.593.106 2.389h-41.35c.04-.796.059-1.595.106-2.389.189-3.146 2.822-5.611 5.996-5.611h2.573v2a2 2 0 0 0 2 2z" />
    <circle cx="22" cy="33" r="3" />
    <circle cx="32" cy="33" r="3" />
    <circle cx="22" cy="43" r="3" />
    <circle cx="42" cy="33" r="3" />
    <circle cx="42" cy="43" r="3" />
    <circle cx="32" cy="43" r="3" />
</svg>