<svg fill="none" height="12" viewBox="0 0 12 12" width="12" xmlns="http://www.w3.org/2000/svg">
    <path
        d="m11.6516 11.6516c-.4645.4645-1.2387.4645-1.70321 0l-3.94839-3.94836-3.94839 3.94836c-.4645.4645-1.238735.4645-1.703235 0s-.4645-1.2387 0-1.70321l3.948385-3.94839-3.948385-3.94839c-.4645-.4645-.4645-1.238735 0-1.703235s1.238735-.4645 1.703235 0l3.94839 3.948385 3.94839-3.948385c.46451-.4645 1.23871-.4645 1.70321 0s.4645 1.238735 0 1.703235l-3.94836 3.94839 3.94836 3.94839c.4645.46451.4645 1.23871 0 1.70321z"
        fill="#da0000" />
</svg>