<svg enable-background="new 0 0 512 512" height="512" viewBox="0 0 48 48" width="512"
    xmlns="http://www.w3.org/2000/svg">
    <path
        d="m40.334 40h-32.668a3.666 3.666 0 0 1 -2.199-6.6l1.647-1.235a2.987 2.987 0 0 0 1.16-1.913l2.067-12.544a13.822 13.822 0 0 1 27.32.01l2.065 12.534a2.987 2.987 0 0 0 1.16 1.913l1.647 1.235a3.666 3.666 0 0 1 -2.2 6.6zm-16.334-32a11.757 11.757 0 0 0 -11.685 10.023l-2.068 12.554a4.979 4.979 0 0 1 -1.933 3.187l-1.648 1.236a1.667 1.667 0 0 0 1 3h32.667a1.666 1.666 0 0 0 1-3l-1.648-1.236a4.979 4.979 0 0 1 -1.933-3.187l-2.068-12.544a11.759 11.759 0 0 0 -11.682-10.033z" />
    <path
        d="m27 8.36a1 1 0 0 1 -1-1v-1.36a2 2 0 0 0 -4 0v1.36a1 1 0 0 1 -2 0v-1.36a4 4 0 0 1 8 0v1.36a1 1 0 0 1 -1 1zm-3 37.64a7.008 7.008 0 0 1 -7-7 1 1 0 0 1 2 0 5 5 0 0 0 10 0 1 1 0 0 1 2 0 7.008 7.008 0 0 1 -7 7z" />
</svg>