<svg fill="none" height="13" viewBox="0 0 13 13" width="13" xmlns="http://www.w3.org/2000/svg">
    <g fill="#6a6a6a">
        <path
            d="m6.5 2.28516c-2.32408 0-4.21484 1.89076-4.21484 4.21484s1.89076 4.2148 4.21484 4.2148 4.2148-1.89072 4.2148-4.2148-1.89072-4.21484-4.2148-4.21484zm1.61512 6.36857-1.99598-1.99598v-3.58548h.76172v3.26998l1.77287 1.77287z" />
        <path
            d="m6.5 0c-3.59633 0-6.5 2.9058-6.5 6.5 0 3.5963 2.90575 6.5 6.5 6.5 3.5963 0 6.5-2.9058 6.5-6.5 0-3.59633-2.9058-6.5-6.5-6.5zm0 11.4766c-2.74409 0-4.97656-2.23251-4.97656-4.9766s2.23247-4.97656 4.97656-4.97656 4.9766 2.23247 4.9766 4.97656-2.23251 4.9766-4.9766 4.9766z" />
    </g>
</svg>